<svg width="21" height="21" viewBox="0 0 21 21" fill="none" xmlns="http://www.w3.org/2000/svg">
<path d="M3.76172 19.0718H11.2617C11.5931 19.0714 11.9108 18.9396 12.1452 18.7052C12.3795 18.4709 12.5113 18.1532 12.5117 17.8218V15.9468H11.2617V17.8218H3.76172V2.82178H11.2617V4.69678H12.5117V2.82178C12.5113 2.49037 12.3795 2.17265 12.1452 1.93831C11.9108 1.70398 11.5931 1.57216 11.2617 1.57178H3.76172C3.43031 1.57216 3.11259 1.70398 2.87826 1.93831C2.64392 2.17265 2.5121 2.49037 2.51172 2.82178V17.8218C2.5121 18.1532 2.64392 18.4709 2.87826 18.7052C3.11259 18.9396 3.43031 19.0714 3.76172 19.0718V19.0718Z" fill="#111111"/>
<path d="M12.878 13.188L15.1192 10.9468H6.26172V9.69678H15.1192L12.878 7.45553L13.7617 6.57178L17.5117 10.3218L13.7617 14.0718L12.878 13.188Z" fill="#111111"/>
</svg>
