<svg width="16" height="17" viewBox="0 0 16 17" fill="none" xmlns="http://www.w3.org/2000/svg">
<path d="M10 10H9V9H7V10H6V9C6.00028 8.73487 6.10572 8.48068 6.2932 8.2932C6.48068 8.10572 6.73487 8.00028 7 8H9C9.26513 8.00028 9.51932 8.10572 9.7068 8.2932C9.89428 8.48068 9.99972 8.73487 10 9V10Z" fill="#7E7E7E"/>
<path d="M8 7.5C7.70333 7.5 7.41332 7.41203 7.16665 7.2472C6.91997 7.08238 6.72771 6.84811 6.61418 6.57403C6.50065 6.29994 6.47094 5.99834 6.52882 5.70737C6.5867 5.41639 6.72956 5.14912 6.93934 4.93934C7.14912 4.72956 7.41639 4.5867 7.70737 4.52882C7.99834 4.47094 8.29994 4.50065 8.57403 4.61418C8.84811 4.72771 9.08238 4.91997 9.2472 5.16665C9.41203 5.41332 9.5 5.70333 9.5 6C9.49956 6.39769 9.34139 6.77897 9.06018 7.06018C8.77897 7.34139 8.39769 7.49956 8 7.5ZM8 5.5C7.90111 5.5 7.80444 5.52933 7.72222 5.58427C7.63999 5.63921 7.5759 5.7173 7.53806 5.80866C7.50022 5.90002 7.49032 6.00056 7.50961 6.09755C7.5289 6.19454 7.57652 6.28363 7.64645 6.35355C7.71637 6.42348 7.80546 6.4711 7.90246 6.49039C7.99945 6.50969 8.09998 6.49978 8.19134 6.46194C8.2827 6.4241 8.36079 6.36001 8.41574 6.27779C8.47068 6.19556 8.5 6.09889 8.5 6C8.49985 5.86744 8.44713 5.74034 8.35339 5.64661C8.25966 5.55287 8.13256 5.50015 8 5.5Z" fill="#7E7E7E"/>
<path d="M8.00001 15.5L3.78226 10.5257C3.75831 10.4971 3.60816 10.2999 3.60816 10.2999C2.88761 9.35084 2.49832 8.1916 2.50001 7C2.50001 5.54131 3.07947 4.14236 4.11092 3.11091C5.14237 2.07946 6.54131 1.5 8.00001 1.5C9.4587 1.5 10.8576 2.07946 11.8891 3.11091C12.9205 4.14236 13.5 5.54131 13.5 7C13.5018 8.19111 13.1128 9.34991 12.3926 10.2986L12.3919 10.2999C12.3919 10.2999 12.2419 10.4971 12.2195 10.5236L8.00001 15.5ZM4.40626 9.6975C4.40676 9.69785 4.52296 9.8516 4.54956 9.8847L8.00001 13.9539L11.455 9.87895C11.477 9.85135 11.5942 9.6965 11.5944 9.6961C12.183 8.92064 12.5012 7.97356 12.5 7C12.5 5.80653 12.0259 4.66193 11.182 3.81802C10.3381 2.97411 9.19348 2.5 8.00001 2.5C6.80653 2.5 5.66194 2.97411 4.81802 3.81802C3.97411 4.66193 3.50001 5.80653 3.50001 7C3.4989 7.97409 3.81725 8.92167 4.40626 9.6975Z" fill="#7E7E7E"/>
</svg>
