<svg width="225" height="40" viewBox="0 0 641 123" fill="none" xmlns="http://www.w3.org/2000/svg">
<path d="M80.5811 122.913C114.556 122.913 142.098 95.3978 142.098 61.4564C142.098 27.5149 114.556 0 80.5811 0C46.6064 0 19.0645 27.5149 19.0645 61.4564C19.0645 95.3978 46.6064 122.913 80.5811 122.913Z" fill="#FD4943"/>
<path d="M16.1801 75.7002C25.1162 75.7002 32.3603 68.4632 32.3603 59.5359C32.3603 50.6086 25.1162 43.3716 16.1801 43.3716C7.2441 43.3716 0 50.6086 0 59.5359C0 68.4632 7.2441 75.7002 16.1801 75.7002Z" fill="#FD4943"/>
<path d="M121.11 32.3286C130.046 32.3286 137.29 25.0916 137.29 16.1643C137.29 7.23701 130.046 0 121.11 0C112.174 0 104.93 7.23701 104.93 16.1643C104.93 25.0916 112.174 32.3286 121.11 32.3286Z" fill="#FD4943"/>
<path d="M123.355 31.2079C118.709 20.1649 105.893 14.8835 94.8391 19.6848C84.266 24.0059 79.1396 35.689 82.5038 46.4119C80.5814 46.892 78.659 47.5322 76.7366 48.3324C75.455 48.8125 74.3336 49.4527 73.2122 50.0929C67.9256 40.3303 56.0709 36.0091 45.6579 40.4903C34.6041 45.1316 29.3176 57.935 34.1235 68.9779C37.9683 78.1003 47.4201 83.2217 56.8719 82.1014C57.1923 84.502 57.8331 86.9027 58.7943 89.3033C65.3624 104.987 84.1058 111.869 100.767 104.987C117.427 97.9456 125.437 79.7008 118.869 64.0166C117.908 61.776 116.786 59.8555 115.345 57.935C123.835 52.1734 127.52 40.9705 123.355 31.2079Z" fill="white"/>
<path d="M54.1481 66.4174C57.4217 66.4174 60.0755 63.7662 60.0755 60.4958C60.0755 57.2254 57.4217 54.5742 54.1481 54.5742C50.8745 54.5742 48.2207 57.2254 48.2207 60.4958C48.2207 63.7662 50.8745 66.4174 54.1481 66.4174Z" fill="#042675"/>
<path d="M103.328 45.7716C106.69 45.7716 109.415 43.0488 109.415 39.69C109.415 36.3312 106.69 33.6084 103.328 33.6084C99.9657 33.6084 97.2402 36.3312 97.2402 39.69C97.2402 43.0488 99.9657 45.7716 103.328 45.7716Z" fill="#042675"/>
<path fill-rule="evenodd" clip-rule="evenodd" d="M69.4699 82.5028C70.5741 81.6739 72.1412 81.897 72.9701 83.0012C79.3687 91.5242 91.4395 93.3478 99.9313 87.1266C101.045 86.3106 102.609 86.5521 103.425 87.6659C104.241 88.7797 104 90.3441 102.886 91.16C92.1541 99.0226 76.991 96.6851 68.9716 86.003C68.1426 84.8989 68.3657 83.3318 69.4699 82.5028Z" fill="#042675"/>
<path d="M90.1949 69.1377C89.2337 69.4578 88.1123 68.8176 87.9521 67.6973L86.0297 59.8552C85.7093 58.895 86.3501 57.7747 87.4715 57.6146C88.4327 57.2945 89.5541 57.9347 89.7143 59.055L91.6367 66.8971C91.9571 67.8574 91.3163 68.8176 90.1949 69.1377Z" fill="#042675"/>
<path d="M84.4268 71.5382C85.2278 70.898 85.388 69.6177 84.7472 68.8175L79.6208 62.4158C78.98 61.6156 77.6984 61.4555 76.8974 62.0957C76.0964 62.7359 75.9362 64.0162 76.577 64.8164L81.7034 71.0581C82.3442 72.0183 83.6258 72.1784 84.4268 71.5382Z" fill="#042675"/>
<path d="M222.16 108.2C212.64 108.2 204.64 106.44 198.16 102.92C191.68 99.4 186.8 94.4 183.52 87.92C180.24 81.44 178.6 73.76 178.6 64.88C178.6 55.92 180.36 48.2 183.88 41.72C187.4 35.16 192.44 30.12 199 26.6C205.64 23 213.6 21.2 222.88 21.2C229.04 21.2 234.44 22.04 239.08 23.72C243.72 25.32 247.8 27.68 251.32 30.8L246.16 42.8C243.6 40.8 241.16 39.2 238.84 38C236.52 36.8 234.12 35.96 231.64 35.48C229.16 34.92 226.28 34.64 223 34.64C213.72 34.64 206.68 37.28 201.88 42.56C197.16 47.76 194.8 55.24 194.8 65C194.8 74.76 197.04 82.2 201.52 87.32C206.08 92.44 213.2 95 222.88 95C226.16 95 229.44 94.68 232.72 94.04C236.08 93.4 239.36 92.48 242.56 91.28L239.68 97.76V72.44H219.88V61.16H252.52V101.84C248.6 103.84 243.92 105.4 238.48 106.52C233.04 107.64 227.6 108.2 222.16 108.2ZM296.348 108.2C290.108 108.2 284.708 106.92 280.148 104.36C275.588 101.8 272.028 98.16 269.468 93.44C266.988 88.72 265.748 83.12 265.748 76.64C265.748 70.16 266.988 64.6 269.468 59.96C272.028 55.24 275.588 51.6 280.148 49.04C284.708 46.48 290.108 45.2 296.348 45.2C302.588 45.2 307.988 46.48 312.548 49.04C317.188 51.6 320.748 55.24 323.228 59.96C325.788 64.6 327.068 70.16 327.068 76.64C327.068 83.12 325.788 88.72 323.228 93.44C320.748 98.16 317.188 101.8 312.548 104.36C307.988 106.92 302.588 108.2 296.348 108.2ZM296.348 96.68C301.068 96.68 304.828 95.04 307.628 91.76C310.428 88.4 311.828 83.36 311.828 76.64C311.828 69.92 310.428 64.92 307.628 61.64C304.828 58.36 301.068 56.72 296.348 56.72C291.628 56.72 287.868 58.36 285.068 61.64C282.268 64.92 280.868 69.92 280.868 76.64C280.868 83.36 282.268 88.4 285.068 91.76C287.868 95.04 291.628 96.68 296.348 96.68ZM341.204 107V22.4H397.004V34.52H356.684V58.52H394.244V70.64H356.684V107H341.204ZM428.992 108.2C421.552 108.2 415.992 106.16 412.312 102.08C408.632 98 406.792 91.76 406.792 83.36V46.4H421.792V83.24C421.792 87.72 422.712 91.04 424.552 93.2C426.392 95.28 429.192 96.32 432.952 96.32C437.192 96.32 440.632 94.88 443.272 92C445.992 89.12 447.352 85.32 447.352 80.6V46.4H462.352V107H447.712V94.64H449.392C447.632 98.96 444.952 102.32 441.352 104.72C437.832 107.04 433.712 108.2 428.992 108.2ZM478.637 107V61.52C478.637 59.04 478.557 56.52 478.397 53.96C478.237 51.4 477.997 48.88 477.677 46.4H492.197L493.397 58.4H491.957C493.877 54.16 496.717 50.92 500.477 48.68C504.237 46.36 508.597 45.2 513.557 45.2C520.677 45.2 526.037 47.2 529.637 51.2C533.237 55.2 535.037 61.44 535.037 69.92V107H520.037V70.64C520.037 65.76 519.077 62.28 517.157 60.2C515.317 58.04 512.517 56.96 508.757 56.96C504.117 56.96 500.437 58.4 497.717 61.28C494.997 64.16 493.637 68 493.637 72.8V107H478.637ZM550.941 107V18.68H565.941V107H550.941ZM609.59 108.2C603.35 108.2 597.95 106.92 593.39 104.36C588.83 101.8 585.27 98.16 582.71 93.44C580.23 88.72 578.99 83.12 578.99 76.64C578.99 70.16 580.23 64.6 582.71 59.96C585.27 55.24 588.83 51.6 593.39 49.04C597.95 46.48 603.35 45.2 609.59 45.2C615.83 45.2 621.23 46.48 625.79 49.04C630.43 51.6 633.99 55.24 636.47 59.96C639.03 64.6 640.31 70.16 640.31 76.64C640.31 83.12 639.03 88.72 636.47 93.44C633.99 98.16 630.43 101.8 625.79 104.36C621.23 106.92 615.83 108.2 609.59 108.2ZM609.59 96.68C614.31 96.68 618.07 95.04 620.87 91.76C623.67 88.4 625.07 83.36 625.07 76.64C625.07 69.92 623.67 64.92 620.87 61.64C618.07 58.36 614.31 56.72 609.59 56.72C604.87 56.72 601.11 58.36 598.31 61.64C595.51 64.92 594.11 69.92 594.11 76.64C594.11 83.36 595.51 88.4 598.31 91.76C601.11 95.04 604.87 96.68 609.59 96.68Z" fill="#042675"/>
</svg>
