<svg width="37" height="37" viewBox="0 0 37 37" fill="none" xmlns="http://www.w3.org/2000/svg">
<rect x="2" y="2" width="32" height="33" rx="5" stroke="#4D4D4E" stroke-width="2"/>
<path d="M26.0915 12.6689C23.6906 12.6689 21.7445 10.7266 21.7445 8.33091C21.7445 8.31419 21.7445 8.29747 21.7449 8.28075L21.7445 8.28111V8H18.3227V21.6413C18.3227 22.996 17.4061 24.1368 16.1578 24.4796C15.9078 24.5489 15.6441 24.5856 15.3722 24.5856C13.7425 24.5856 12.4217 23.2675 12.4217 21.6413C12.4217 20.015 13.7425 18.6969 15.3722 18.6969C15.6441 18.6969 15.9078 18.7335 16.1578 18.8029V15.3303C15.9 15.2985 15.6382 15.2822 15.3722 15.2822C11.8529 15.2822 9 18.1293 9 21.6411C9 25.1528 11.8531 28 15.3722 28C15.6382 28 15.9 27.9836 16.1578 27.9519C17.0845 27.8383 17.9496 27.5261 18.7091 27.0591C20.5304 25.94 21.7445 23.9319 21.7445 21.6409V14.3038C22.6362 15.4299 24.0176 16.1529 25.5679 16.1529C25.8966 16.1529 26.2177 16.1206 26.5281 16.0581V12.6469C26.3847 12.6612 26.239 12.6685 26.0915 12.6685V12.6689Z" fill="#4D4D4E"/>
</svg>

